<svg width="75" height="24" viewBox="0 0 75 24" fill="none" xmlns="http://www.w3.org/2000/svg">
<path d="M25.163 4.86344V0H15.3304V7.92952H8.56388V4.86344H12.2643V0H2.43172V7.92952H0V12.8987H2.43172V23.8943H8.56388V12.8987H15.3304V23.8943H21.4626V12.8987H25.163V7.92952H21.4626V4.86344H25.163Z" fill="white"/>
<path d="M69.7797 0H71.8943V0.634361H71.1542V2.43172H70.4141V0.634361H69.7797V0Z" fill="white"/>
<path d="M73.2687 0H72.3172V2.53745H72.9515V0.951542L73.3744 2.53745H73.9031L74.326 0.951542V2.43172H74.9604V0H74.0088L73.6916 1.37445L73.2687 0Z" fill="white"/>
<path d="M46.0969 7.92952L43.5595 16.0705L41.2335 7.92952H37.2159L34.8899 16.0705L32.3524 7.92952H26.1145L31.8238 23.8943H36.793L39.2247 16.1762L41.7621 23.8943H46.6256L52.3348 7.92952H46.0969Z" fill="white"/>
<path fill-rule="evenodd" clip-rule="evenodd" d="M63.2247 8.56388V0H68.511V23.7885H63.2247V23.1542C62.0617 23.6828 60.8987 24 59.63 24C55.1894 24 51.489 20.2996 51.489 15.859C51.489 11.4185 55.0837 7.71806 59.63 7.71806C60.8987 7.71806 62.1674 8.03524 63.2247 8.56388ZM56.4582 15.9648C56.4582 17.9736 58.0441 19.5595 60.0529 19.5595C62.0617 19.5595 63.6476 17.9736 63.6476 15.9648C63.6476 13.9559 62.0617 12.37 60.0529 12.37C58.0441 12.37 56.4582 13.9559 56.4582 15.9648Z" fill="white"/>
</svg>
