<?xml version="1.0" encoding="utf-8"?>
<!-- Generator: Adobe Illustrator 24.0.1, SVG Export Plug-In . SVG Version: 6.00 Build 0)  -->
<svg version="1.1" id="Capa_1" xmlns="http://www.w3.org/2000/svg" xmlns:xlink="http://www.w3.org/1999/xlink" x="0px" y="0px"
	 viewBox="0 0 126.77 40" fill="#fff" style="enable-background:new 0 0 126.77 40;" xml:space="preserve">
<g>
	<g>
		<path d="M60.36,33.56h0.77l2.08,5.26h0.02l2.03-5.26h0.79v6.03H65.5v-5.25h-0.02c0,0-0.16,0.48-0.29,0.82l-1.74,4.43h-0.5
			l-1.76-4.43c-0.13-0.31-0.3-0.82-0.3-0.82h-0.02v5.25h-0.52V33.56z"/>
		<path d="M68.93,33.56h0.64l2.29,6.03h-0.61l-0.7-1.9h-2.62l-0.71,1.9h-0.57L68.93,33.56z M70.39,37.23l-0.83-2.25
			c-0.13-0.34-0.3-0.88-0.3-0.88h-0.02c0,0-0.16,0.51-0.3,0.88l-0.84,2.25H70.39z"/>
		<path d="M72.5,33.56h0.56v6.03H72.5V33.56z"/>
		<path d="M73.83,37.63h0.56c0.06,1.02,0.75,1.59,1.88,1.59c0.88,0,1.54-0.45,1.54-1.26c0-0.85-0.56-1.05-1.85-1.31
			c-1.11-0.22-1.9-0.56-1.9-1.61c0-0.96,0.81-1.59,2.01-1.59c1.34,0,2.01,0.72,2.12,1.76h-0.55c-0.1-0.85-0.71-1.29-1.57-1.29
			c-0.92,0-1.48,0.44-1.48,1.1c0,0.72,0.56,0.94,1.64,1.14c1.17,0.23,2.14,0.51,2.14,1.78c0,1.07-0.86,1.76-2.12,1.76
			C74.68,39.7,73.9,38.8,73.83,37.63z"/>
		<path d="M84.54,39.28c-0.41,0.27-0.92,0.42-1.49,0.42c-1.7,0-2.8-1.34-2.8-3.13c0-1.79,1.1-3.13,2.8-3.13
			c1.71,0,2.81,1.34,2.81,3.13c0,0.99-0.34,1.84-0.93,2.4l0.79,0.64L85.42,40L84.54,39.28z M84.11,38.94l-0.65-0.54l0.3-0.38
			l0.76,0.62c0.5-0.47,0.75-1.21,0.75-2.06c0-1.46-0.78-2.63-2.22-2.63c-1.44,0-2.21,1.17-2.21,2.63c0,1.46,0.77,2.63,2.21,2.63
			C83.46,39.2,83.82,39.11,84.11,38.94z"/>
		<path d="M86.64,37.67v-4.11h0.56v4.06c0,1.11,0.6,1.57,1.65,1.57c1,0,1.64-0.45,1.64-1.57v-4.06h0.56v4.11
			c0,1.4-0.93,2.01-2.23,2.01C87.51,39.68,86.64,39.06,86.64,37.67z"/>
		<path d="M92.06,33.56h4.1v0.5h-3.53v2.17h3.24v0.49h-3.24v2.35h3.62v0.52h-4.19V33.56z"/>
		<path d="M98.37,33.56h2.14c1.78,0,2.58,1.25,2.58,3.03c0,1.79-0.86,2.99-2.64,2.99h-2.08V33.56z M100.43,39.09
			c1.44,0,2.06-0.97,2.06-2.49c0-1.53-0.56-2.54-2.01-2.54h-1.56v5.03H100.43z"/>
		<path d="M103.95,33.56h0.56v6.03h-0.56V33.56z"/>
		<path d="M105.39,36.58c0-1.78,1.02-3.13,2.85-3.13c1.24,0,2.16,0.64,2.38,1.86h-0.58c-0.19-0.9-0.88-1.37-1.79-1.37
			c-1.55,0-2.26,1.19-2.26,2.65c0,1.48,0.75,2.63,2.18,2.63c1.39,0,1.99-0.96,1.99-2.01v-0.21h-1.94v-0.5h2.49v3.09h-0.4l-0.12-0.96
			h-0.03c-0.31,0.49-0.9,1.08-2.01,1.08C106.4,39.71,105.39,38.38,105.39,36.58z"/>
		<path d="M111.74,33.56h0.56v6.03h-0.56V33.56z"/>
		<path d="M115.08,34.07h-2.04v-0.51h4.63v0.51h-2.03v5.52h-0.56V34.07z"/>
		<path d="M119.46,33.56h0.64l2.29,6.03h-0.61l-0.7-1.9h-2.62l-0.71,1.9h-0.57L119.46,33.56z M120.92,37.23l-0.83-2.25
			c-0.13-0.34-0.3-0.88-0.3-0.88h-0.02c0,0-0.16,0.51-0.3,0.88l-0.84,2.25H120.92z"/>
		<path d="M123,33.56h0.56v5.5h3.21v0.52H123V33.56z"/>
	</g>
</g>
<g>
	<polygon class="st1" points="24.31,4.74 24.31,0 14.81,0 14.81,7.7 8.29,7.7 8.29,4.74 11.84,4.74 11.84,0 2.37,0 2.37,7.7 0,7.7 
		0,12.44 2.37,12.44 2.37,23.1 8.29,23.1 8.29,12.44 14.81,12.44 14.81,23.1 20.75,23.1 20.75,12.44 24.31,12.44 24.31,7.7 
		20.75,7.7 20.75,4.74 	"/>
	<g>
		<path class="st1" d="M44.42,37.46h2.04v0.59h-0.68v1.78h-0.69v-1.78h-0.67V37.46z"/>
		<path class="st1" d="M46.79,37.46h0.9l0.37,1.33h0.01l0.37-1.33h0.91v2.37h-0.63v-1.49H48.7l-0.4,1.49H47.8l-0.4-1.49H47.4v1.49
			h-0.61V37.46z"/>
	</g>
	<polygon class="st1" points="21.47,24.41 19.07,32.19 19.01,32.19 16.83,24.41 12.89,24.41 10.71,32.19 10.66,32.19 8.25,24.41 
		2.21,24.41 7.75,39.84 12.45,39.84 14.86,32.32 17.27,39.84 21.97,39.84 27.51,24.41 	"/>
	<path class="st1" d="M38.08,16.7v8.22c-1.04-0.5-2.2-0.78-3.43-0.78c-4.37,0-7.91,3.54-7.91,7.91s3.54,7.91,7.91,7.91
		c1.23,0,2.39-0.28,3.43-0.78v0.65h5.14V16.7H38.08z M34.98,35.55c-1.93,0-3.49-1.56-3.49-3.49s1.56-3.49,3.49-3.49
		c1.93,0,3.49,1.56,3.49,3.49S36.91,35.55,34.98,35.55z"/>
</g>
</svg>
